<svg id="Calque_1" data-name="Calque 1" xmlns="http://www.w3.org/2000/svg" viewBox="0 0 325.97 216.58"><defs><style>.cls-1{isolation:isolate;}.cls-2{fill:#fd0e3e;}.cls-3{fill:#fff;}</style></defs><g id="La_ligne_GRANDE_VITESSE_DU_sud-ouest" data-name="La ligne GRANDE VITESSE DU sud-ouest" class="cls-1"><g class="cls-1"><path class="cls-2" d="M12.48,157.73h3.57v12.12h6.29V173H12.48Z"/><path class="cls-2" d="M24.32,157.73H34.55v3.11H27.89v2.65h6.22v3.14H27.89v3.22h6.66V173H24.32Z"/><path class="cls-2" d="M36.29,169.22l3-1.22A2.84,2.84,0,0,0,42,170.15c1.08,0,1.85-.59,1.85-1.5,0-.74-.44-1.33-1.72-2-.31-.15-1.87-.94-2.13-1.09a4.44,4.44,0,0,1-2.64-4.15c0-2.33,1.85-4,4.66-4a4.16,4.16,0,0,1,4.31,2.69l-2.85,1.46A1.6,1.6,0,0,0,42,160.47c-.63,0-1.11.35-1.11.91s.28.94,1.13,1.39c.17.09,2,1,2.18,1.16,2.13,1.13,3.13,2.52,3.13,4.7,0,2.44-2.07,4.59-5.35,4.59A5.46,5.46,0,0,1,36.29,169.22Z"/><path class="cls-2" d="M55,157.73h3.57v12.12h6.29V173H55Z"/><path class="cls-2" d="M66.84,157.73h3.57V173H66.84Z"/><path class="cls-2" d="M73,165.32c0-4.57,3-7.85,7.75-7.85a6.86,6.86,0,0,1,6.37,3.43l-3,1.75a4,4,0,0,0-3.48-2c-2.22,0-4.07,1.83-4.07,4.7,0,3.09,2,4.74,4.07,4.74a3.21,3.21,0,0,0,3.48-2.72H80.77v-3h6.9V173H85.19l-.57-1.5a6,6,0,0,1-4.31,1.76C76,173.22,73,169.85,73,165.32Z"/><path class="cls-2" d="M90.58,157.73h3.9l5.31,9.48v-9.48h3.5V173H99.42l-5.33-9.21V173H90.58Z"/><path class="cls-2" d="M106.56,157.73h10.22v3.11h-6.65v2.65h6.22v3.14h-6.22v3.22h6.65V173H106.56Z"/><path class="cls-2" d="M118.53,169.22l3-1.22a2.84,2.84,0,0,0,2.72,2.15c1.08,0,1.84-.59,1.84-1.5,0-.74-.43-1.33-1.71-2-.31-.15-1.88-.94-2.14-1.09a4.45,4.45,0,0,1-2.63-4.15c0-2.33,1.85-4,4.66-4a4.17,4.17,0,0,1,4.31,2.69l-2.86,1.46a1.58,1.58,0,0,0-1.45-1.15c-.63,0-1.11.35-1.11.91s.28.94,1.13,1.39c.17.09,2,1,2.18,1.16,2.13,1.13,3.13,2.52,3.13,4.7,0,2.44-2.07,4.59-5.35,4.59A5.46,5.46,0,0,1,118.53,169.22Z"/><path class="cls-2" d="M136.59,165.32c0-4.57,3-7.85,7.74-7.85a6.87,6.87,0,0,1,6.38,3.43l-3,1.75a4,4,0,0,0-3.49-2c-2.21,0-4.06,1.83-4.06,4.7,0,3.09,2,4.74,4.06,4.74a3.22,3.22,0,0,0,3.49-2.72h-3.38v-3h6.9V173h-2.48l-.56-1.5a6,6,0,0,1-4.31,1.76C139.55,173.22,136.59,169.85,136.59,165.32Z"/><path class="cls-2" d="M154.15,157.73h5.42c3.37,0,5.2,1.67,5.2,4.28a4,4,0,0,1-3,4l4.12,7h-4l-3.65-6.44h-.48V173h-3.57Zm5.4,5.76c1,0,1.65-.52,1.65-1.35s-.63-1.34-1.65-1.34h-1.83v2.69Z"/><path class="cls-2" d="M171.84,157.73h3.4L180.85,173h-3.57l-1.06-3h-5.44l-1.09,3h-3.53Zm3.33,9.11-1.67-4.91-1.68,4.91Z"/><path class="cls-2" d="M182.53,157.73h3.89l5.31,9.48v-9.48h3.5V173h-3.87L186,163.75V173h-3.5Z"/><path class="cls-2" d="M198.5,157.73h5.09c5.07,0,7.9,3.24,7.9,7.61s-3,7.62-7.9,7.62H198.5Zm5.18,12.12c2.48,0,4.22-1.48,4.22-4.51s-1.74-4.5-4.22-4.5h-1.61v9Z"/><path class="cls-2" d="M214.1,157.73h10.23v3.11h-6.66v2.65h6.23v3.14h-6.23v3.22h6.66V173H214.1Z"/><path class="cls-2" d="M231.16,157.73h3.75L238,168.24l3.18-10.51H245L239.82,173h-3.54Z"/><path class="cls-2" d="M246.77,157.73h3.57V173h-3.57Z"/><path class="cls-2" d="M256.06,160.84h-3.85v-3.11h11.38v3.11h-4V173h-3.55Z"/><path class="cls-2" d="M265.46,157.73h10.23v3.11H269v2.65h6.22v3.14H269v3.22h6.66V173H265.46Z"/><path class="cls-2" d="M277.43,169.22l3-1.22a2.84,2.84,0,0,0,2.72,2.15c1.09,0,1.85-.59,1.85-1.5,0-.74-.44-1.33-1.72-2-.3-.15-1.87-.94-2.13-1.09a4.46,4.46,0,0,1-2.64-4.15c0-2.33,1.85-4,4.66-4a4.16,4.16,0,0,1,4.31,2.69l-2.85,1.46a1.58,1.58,0,0,0-1.46-1.15c-.63,0-1.11.35-1.11.91s.28.94,1.13,1.39c.18.09,2,1,2.18,1.16,2.13,1.13,3.13,2.52,3.13,4.7,0,2.44-2.07,4.59-5.35,4.59A5.46,5.46,0,0,1,277.43,169.22Z"/><path class="cls-2" d="M289.59,169.22l3-1.22a2.85,2.85,0,0,0,2.72,2.15c1.09,0,1.85-.59,1.85-1.5,0-.74-.43-1.33-1.71-2-.31-.15-1.88-.94-2.14-1.09a4.45,4.45,0,0,1-2.63-4.15c0-2.33,1.85-4,4.66-4a4.15,4.15,0,0,1,4.3,2.69l-2.85,1.46a1.58,1.58,0,0,0-1.45-1.15c-.63,0-1.11.35-1.11.91s.28.94,1.13,1.39c.17.09,2,1,2.17,1.16,2.14,1.13,3.14,2.52,3.14,4.7,0,2.44-2.07,4.59-5.36,4.59A5.47,5.47,0,0,1,289.59,169.22Z"/><path class="cls-2" d="M302.89,157.73h10.23v3.11h-6.66v2.65h6.22v3.14h-6.22v3.22h6.66V173H302.89Z"/></g><g class="cls-1"><path class="cls-2" d="M12.48,188.56h5.09c5.07,0,7.9,3.24,7.9,7.61s-3,7.62-7.9,7.62H12.48Zm5.18,12.12c2.48,0,4.22-1.48,4.22-4.51s-1.74-4.5-4.22-4.5H16.05v9Z"/><path class="cls-2" d="M27.87,197.44v-8.88h3.56v8.5c0,2.53,1,3.86,3,3.86s2.94-1.33,2.94-3.86v-8.5h3.59v8.88c0,4-2.46,6.61-6.53,6.61S27.87,201.48,27.87,197.44Z"/><path class="cls-2" d="M48.26,200.05l3-1.22A2.84,2.84,0,0,0,53.94,201c1.08,0,1.85-.59,1.85-1.5,0-.74-.44-1.33-1.72-2-.31-.15-1.87-.94-2.14-1.09a4.45,4.45,0,0,1-2.63-4.15c0-2.33,1.85-4,4.66-4A4.16,4.16,0,0,1,58.27,191l-2.85,1.46A1.6,1.6,0,0,0,54,191.3c-.63,0-1.11.35-1.11.91s.28.94,1.13,1.39c.17.09,2,1.05,2.18,1.16,2.13,1.13,3.13,2.52,3.13,4.7,0,2.44-2.07,4.59-5.35,4.59A5.46,5.46,0,0,1,48.26,200.05Z"/><path class="cls-2" d="M61.34,197.44v-8.88H64.9v8.5c0,2.53,1,3.86,3,3.86s2.94-1.33,2.94-3.86v-8.5h3.59v8.88c0,4-2.46,6.61-6.53,6.61S61.34,201.48,61.34,197.44Z"/><path class="cls-2" d="M77.44,188.56h5.09c5.07,0,7.9,3.24,7.9,7.61s-3,7.62-7.9,7.62H77.44Zm5.18,12.12c2.48,0,4.22-1.48,4.22-4.51s-1.74-4.5-4.22-4.5H81v9Z"/><path class="cls-2" d="M92.85,196.78h6.92v3H92.85Z"/><path class="cls-2" d="M102.18,196.17a7.85,7.85,0,1,1,15.69,0,7.85,7.85,0,1,1-15.69,0Zm12.1,0c0-3-2.07-4.76-4.24-4.76s-4.29,1.74-4.29,4.76,2.07,4.77,4.29,4.77S114.28,199.2,114.28,196.17Z"/><path class="cls-2" d="M120.27,197.44v-8.88h3.57v8.5c0,2.53,1,3.86,3,3.86s2.93-1.33,2.93-3.86v-8.5h3.59v8.88c0,4-2.46,6.61-6.52,6.61S120.27,201.48,120.27,197.44Z"/><path class="cls-2" d="M136.37,188.56H146.6v3.11h-6.66v2.65h6.22v3.14h-6.22v3.22h6.66v3.11H136.37Z"/><path class="cls-2" d="M148.34,200.05l3-1.22A2.84,2.84,0,0,0,154,201c1.09,0,1.85-.59,1.85-1.5,0-.74-.44-1.33-1.72-2-.31-.15-1.87-.94-2.13-1.09a4.44,4.44,0,0,1-2.64-4.15c0-2.33,1.85-4,4.66-4a4.16,4.16,0,0,1,4.31,2.69l-2.85,1.46A1.58,1.58,0,0,0,154,191.3c-.63,0-1.11.35-1.11.91s.28.94,1.13,1.39c.18.09,2,1.05,2.18,1.16,2.13,1.13,3.13,2.52,3.13,4.7,0,2.44-2.07,4.59-5.35,4.59A5.46,5.46,0,0,1,148.34,200.05Z"/><path class="cls-2" d="M164.09,191.67h-3.85v-3.11h11.38v3.11h-4v12.12h-3.55Z"/></g></g><rect class="cls-2" x="11.85" y="12.79" width="199.63" height="124.47"/><path class="cls-3" d="M88.75,62.38h14.17v9H78.71v-39h10Z"/><path class="cls-3" d="M65,55.85H69.9V63H63.76l-1.45,8.37H55L56.4,63H48.31l-1.45,8.37H39.49L40.94,63H36.7V55.85h5.47l1.39-8.26H38.65V40.45h6.14l1.4-8.14h7.36l-1.39,8.14h8.09l1.39-8.14H69l-1.4,8.14h4.24v7.14H66.38Zm-15.46,0h8.09L59,47.59H50.93Z"/><path class="cls-3" d="M49.65,86.73a3.43,3.43,0,0,0-3.84,3,3.37,3.37,0,0,0,0,.84H37.32C37.21,82.1,42.9,78,49.82,77.81,61,77.53,65.94,88.63,60.14,97.61l-7.87,10.94H63.88v8.92H36.43V116L51.1,94.49c2-2.63,3.46-7.76-1.45-7.76"/><path class="cls-3" d="M99.14,91.14v13.67c0,8.54-6.59,13.44-14.68,13.44-7.92,0-14.56-4.9-14.56-13.44V91.14c0-8.54,6.64-13.44,14.56-13.44,8.09,0,14.68,4.9,14.68,13.44m-9.43,13.45V91.31c0-3.07-2.29-4.69-5.25-4.69a4.58,4.58,0,0,0-5,4.07c0,.2,0,.41,0,.62v13.28a4.61,4.61,0,0,0,4.4,4.81,3.84,3.84,0,0,0,.68,0,4.69,4.69,0,0,0,5.22-4.1q0-.34,0-.69"/><path class="cls-3" d="M114.59,105.53c0,2.57,1.73,3.85,4.41,3.85a4.29,4.29,0,0,0,4.31-4.28c0-.13,0-.27,0-.4-.05-5.64-5.63-5.41-9.87-5.25V98.11l5.19-10.82H107.34V78.42h24.82v1.45L125,93c6.19,1.56,8,6.58,8,11.6a13.25,13.25,0,0,1-12.88,13.62h-.85a13.57,13.57,0,0,1-7-1.68,12.51,12.51,0,0,1-6.42-11Z"/><path class="cls-3" d="M168.87,91.14v13.67c0,8.54-6.58,13.44-14.67,13.44-7.92,0-14.56-4.9-14.56-13.44V91.14c0-8.54,6.64-13.44,14.56-13.44,8.09,0,14.67,4.9,14.67,13.44m-9.43,13.45V91.31c0-3.07-2.29-4.69-5.24-4.69a4.59,4.59,0,0,0-5.06,4.07,4.24,4.24,0,0,0,0,.62v13.28a4.6,4.6,0,0,0,4.39,4.81,4,4,0,0,0,.69,0,4.69,4.69,0,0,0,5.21-4.1,4,4,0,0,0,0-.69"/><path class="cls-3" d="M127.41,31.8c7.87.06,16.07,4.13,18,13.84h-9.82c-1.62-3.35-4.19-4.68-8.15-4.68-6.3,0-9.7,4.9-9.7,10.88,0,6.47,3.79,10.71,9.7,10.71,4,0,6.59-1.06,8.37-4.8h-8.31V49.1h18.47a28.4,28.4,0,0,1-1.12,11.44c-2.79,8.14-10.21,11.27-17.41,11.27-9.93,0-20-6.64-20-20s10.1-20,20-20"/><path class="cls-3" d="M168.42,54.4h.28l8.92-22.09h9.6v1.5l-16.57,38h-4.24l-16.74-38v-1.5h9.6Z"/></svg>