<?xml version="1.0" encoding="utf-8"?>
<!-- Generator: Adobe Illustrator 16.0.0, SVG Export Plug-In . SVG Version: 6.00 Build 0)  -->
<!DOCTYPE svg PUBLIC "-//W3C//DTD SVG 1.1//EN" "http://www.w3.org/Graphics/SVG/1.1/DTD/svg11.dtd">
<svg version="1.1" id="Calque_1" xmlns="http://www.w3.org/2000/svg" xmlns:xlink="http://www.w3.org/1999/xlink" x="0px" y="0px"
	 width="2834.65px" height="2834.649px" viewBox="0 0 2834.65 2834.649" enable-background="new 0 0 2834.65 2834.649"
	 xml:space="preserve">
<rect x="1332.553" y="903.193" fill="none" width="1443.318" height="1134.512"/>
<text transform="matrix(1 0 0 1 1332.5527 1303.5913)"><tspan x="0" y="0" fill="#24346B" font-family="'Wigrum-Bold'" font-size="560">4,8k</tspan><tspan x="1126.707" y="0" fill="#24346B" font-family="'Wigrum-Bold'" font-size="500"> </tspan><tspan x="0" y="222" fill="#24346B" font-family="'Wigrum-Bold'" font-size="200">hectares</tspan><tspan x="0" y="444" fill="#24346B" font-family="'Wigrum-Bold'" font-size="200">de terres </tspan><tspan x="0" y="666" fill="#24346B" font-family="'Wigrum-Bold'" font-size="200">artificialisées</tspan></text>
<g>
	<ellipse fill="#77D3BC" cx="266.075" cy="1647.422" rx="146.782" ry="146.782"/>
</g>
<g>
	
		<rect x="285.146" y="1683.289" transform="matrix(-0.5176 -0.8556 0.8556 -0.5176 -1044.0282 2888.3376)" fill="#24346B" width="14.153" height="110.393"/>
</g>
<g>
	<polygon fill="#C1EAE7" points="458.963,1068.958 575.826,1271.145 692.286,1473.331 458.963,1473.331 225.64,1473.331 
		342.099,1271.145 	"/>
</g>
<g>
	<polygon fill="#24346B" points="553.852,1745.399 538.176,1749.384 458.963,1437.819 499.276,1389.602 511.379,1399.459 
		476.632,1441.672 	"/>
</g>
<g>
	
		<rect x="412.453" y="1317.508" transform="matrix(-0.9692 0.2464 -0.2464 -0.9692 1164.1869 2585.1636)" fill="#24346B" width="15.771" height="95.836"/>
</g>
<g>
	<path fill="#FF003E" d="M1045.028,1409.303c53.623-102.468,14-229.087-88.468-282.709
		c-102.468-53.623-229.445-14.188-283.067,88.28c-17.812,34.037-25.354,70.252-23.481,105.919
		c-24.593,9.494-46.078,27.002-59.203,52.082c-28.499,54.459-7.493,121.589,46.966,150.088
		c34.753,18.187,74.582,16.209,106.387-1.833c6.973,33.771,28.477,64.192,61.438,81.441c58.399,30.562,130.441,8.018,161.003-50.383
		c11.437-21.854,15.316-45.838,12.663-68.678C1006.193,1465.198,1028.904,1440.116,1045.028,1409.303z"/>
</g>
<g>
	<polygon fill="#24346B" points="790.955,1838.252 805.512,1838.252 805.512,1435.094 730.298,1380.504 721.403,1392.635 
		790.955,1442.778 	"/>
</g>
<g>
	
		<rect x="855.314" y="1471.639" transform="matrix(0.6525 -0.7578 0.7578 0.6525 -884.5562 1196.8219)" fill="#24346B" width="14.558" height="182.372"/>
</g>
<g>
	<polygon fill="#24346B" points="649.706,1687.688 649.372,1703.86 327.963,1697.24 292.223,1645.542 304.947,1636.5 
		336.383,1681.235 	"/>
</g>
</svg>
