<?xml version="1.0" encoding="utf-8"?>
<!-- Generator: Adobe Illustrator 16.0.0, SVG Export Plug-In . SVG Version: 6.00 Build 0)  -->
<!DOCTYPE svg PUBLIC "-//W3C//DTD SVG 1.1//EN" "http://www.w3.org/Graphics/SVG/1.1/DTD/svg11.dtd">
<svg version="1.1" xmlns="http://www.w3.org/2000/svg" xmlns:xlink="http://www.w3.org/1999/xlink" x="0px" y="0px"
	 width="4611.967px" height="3648.874px" viewBox="0 0 4611.967 3648.874" enable-background="new 0 0 4611.967 3648.874"
	 xml:space="preserve">
<g id="Calque_1">
	<path d="M302.25,2734.053l26.088-10.609c2.716,10.85,12.383,18.52,23.566,18.697c9.392,0,16.088-5.131,16.088-13.045
		c0-6.434-3.827-11.564-14.958-17.391c-2.695-1.305-16.262-8.176-18.522-9.479c-14.225-6.305-23.276-20.533-22.958-36.09
		c0-20.262,16.087-34.783,40.523-34.783c16.357-1.623,31.752,7.984,37.48,23.393l-24.784,12.695
		c-1.866-5.555-7.012-9.344-12.87-9.479c-5.479,0-9.653,3.043-9.653,7.914c0,4.869,2.435,8.174,9.827,12.088
		c1.478,0.781,17.392,8.695,18.957,10.086c18.522,9.828,27.219,21.914,27.219,40.871c0,21.219-18.001,39.916-46.524,39.916
		C329.03,2770.608,308.27,2756.012,302.25,2734.053z"/>
	<path fill="#FF003E" d="M1493.541,1848.503h31.045v105.395h54.698v27.393h-85.743V1848.503z"/>
	<path fill="#FF003E" d="M3515.863,1848.503h31.045v132.787h-31.045V1848.503z"/>
	<path d="M612.55,2699.644c0-39.74,26.088-68.264,67.395-68.264c22.633-1.395,44.099,10.164,55.394,29.828l-26.088,15.217
		c-6.238-10.805-17.786-17.441-30.263-17.393c-19.305,0-35.393,15.914-35.393,40.873c0,26.869,17.392,41.219,35.393,41.219
		c14.771,1.412,28.064-8.979,30.263-23.654h-29.132v-26.088h60.002v75.047h-21.565l-4.957-13.043
		c-9.924,9.938-23.436,15.455-37.479,15.305C638.638,2768.343,612.55,2739.037,612.55,2699.644z"/>
	<path d="M765.427,2633.642h33.914l46.176,82.438v-82.438h30.437v132.787H842.3l-46.351-80.09v80.09h-30.522V2633.642z"/>
	<path d="M904.389,2633.642h88.874v27.043h-57.829v23.045h54.09v27.307h-54.09v28h57.829v27.393h-88.874V2633.642z"/>
	<path d="M1008.48,2733.558l26.089-10.609c2.724,10.881,12.438,18.559,23.652,18.697c9.393,0,16.001-5.131,16.001-13.045
		c0-6.434-3.739-11.564-14.87-17.391c-2.695-1.305-16.349-8.176-18.609-9.479c-14.176-6.35-23.181-20.561-22.871-36.09
		c0-20.262,16.088-34.783,40.523-34.783c16.35-1.592,31.728,8.006,37.48,23.393l-24.871,12.695c-1.606-5.703-6.689-9.734-12.609-10
		c-5.479,0-9.652,3.043-9.652,7.914c0,4.869,2.436,8.174,9.826,12.086c1.479,0.783,17.393,8.697,18.958,10.088
		c18.522,9.826,27.219,21.914,27.219,40.871c0,21.219-18.001,39.916-46.524,39.916
		C1035.578,2769.779,1014.724,2755.414,1008.48,2733.558z"/>
	<path d="M1165.531,2699.644c0-39.74,26.088-68.264,67.308-68.264c22.658-1.406,44.156,10.15,55.48,29.828l-26.088,15.217
		c-6.254-10.832-17.842-17.473-30.35-17.393c-19.218,0-35.306,15.914-35.306,40.873c0,26.869,17.392,41.219,35.306,41.219
		c14.79,1.416,28.11-8.967,30.35-23.654h-29.393v-26.088h60.002v75.047h-21.565l-4.87-13.043
		c-9.924,9.938-23.436,15.455-37.479,15.305C1191.271,2768.343,1165.531,2739.037,1165.531,2699.644z"/>
	<path d="M1318.233,2633.642h47.133c29.306,0,45.22,14.521,45.22,37.219c0.515,16.27-10.324,30.723-26.089,34.783l35.828,60.873
		h-34.784l-31.74-56.002h-4.175v55.914h-31.045L1318.233,2633.642z M1365.192,2683.73c8.696,0,14.349-4.521,14.349-11.74
		c0-7.217-5.479-11.652-14.349-11.652h-15.914v23.393H1365.192z"/>
	<path d="M1472.067,2633.642h29.566l48.785,132.787h-31.045l-9.219-26.088h-47.307l-9.479,26.088h-30.697L1472.067,2633.642z
		 M1501.024,2712.863l-14.521-42.699l-14.609,42.699H1501.024z"/>
	<path d="M1565.028,2633.642h33.827l46.176,82.438v-82.438h30.437v132.787h-33.654l-46.61-80.438v80.438h-30.437L1565.028,2633.642z
		"/>
	<path d="M1703.903,2633.642h44.264c44.088,0,68.698,28.174,68.698,66.176s-26.089,66.264-68.698,66.264h-44.264V2633.642z
		 M1748.949,2739.037c21.565,0,36.697-12.869,36.697-39.219s-15.132-39.133-36.697-39.133h-14.001v78.266L1748.949,2739.037z"/>
	<path d="M1839.562,2633.642h88.961v27.043h-57.916v23.045h54.177v27.307h-54.177v28h57.916v27.393h-88.961V2633.642z"/>
	<path d="M1987.917,2633.642h32.609l26.871,91.395l27.653-91.395h33.219l-45.045,132.787h-30.784L1987.917,2633.642z"/>
	<path fill="#FF003E" d="M3189.924,1848.503h31.045v132.787h-31.045V1848.503z"/>
	<path fill="#FF003E" d="M3270.71,1875.546h-33.48v-27.043h98.961v27.043h-34.783v105.744h-30.871L3270.71,1875.546z"/>
	<path fill="#FF003E" d="M1596.204,1848.503h88.961v27.043h-58.177v23.045h54.09v27.307h-54.09v28h57.916v27.393h-88.7V1848.503z"/>
	<path fill="#FF003E" d="M2939.208,1949.115l26.088-10.609c2.725,10.881,12.438,18.559,23.654,18.697
		c9.479,0,16.087-5.131,16.087-13.045c0-6.434-3.826-11.564-14.957-17.391c-2.608-1.305-16.262-8.176-18.522-9.479
		c-14.193-6.342-23.229-20.545-22.958-36.09c0-20.262,16.088-34.783,40.524-34.783c16.356-1.623,31.752,7.984,37.479,23.393
		l-24.784,12.695c-1.616-5.732-6.743-9.771-12.695-10c-5.479,0-9.653,3.043-9.653,7.914c0,4.869,2.436,8.174,9.827,12.086
		c1.564,0.783,17.392,8.697,18.957,10.088c18.522,9.826,27.219,21.914,27.219,40.871c0,21.219-18.001,39.916-46.523,39.916
		C2966.306,1985.335,2945.451,1970.97,2939.208,1949.115z"/>
	<path d="M2496.026,2733.558l26.088-10.609c2.751,10.863,12.449,18.529,23.653,18.697c9.479,0,16.088-5.131,16.088-13.045
		c0-6.434-3.739-11.564-14.87-17.391c-2.695-1.305-16.349-8.176-18.609-9.479c-14.176-6.35-23.181-20.561-22.871-36.09
		c0-20.262,16.088-34.783,40.523-34.783c16.334-1.613,31.698,7.998,37.394,23.393l-24.784,12.695
		c-1.606-5.703-6.689-9.734-12.609-10c-5.479,0-9.652,3.043-9.652,7.914c0,4.869,2.435,8.174,9.826,12.086
		c1.479,0.783,17.393,8.697,18.871,10.088c18.609,9.826,27.306,21.914,27.306,40.871c0,21.219-18.001,39.916-46.61,39.916
		C2523.134,2769.744,2502.299,2755.392,2496.026,2733.558z"/>
	<path fill="#FF003E" d="M3689.673,1848.503h88.96v27.043h-57.915v23.045h54.089v27.307h-54.089v28h57.915v27.393h-88.96V1848.503z"
		/>
	<path d="M34.623,2633.223h44.263c44.089,0,68.699,28.176,68.699,66.178s-26.088,66.264-68.699,66.264H34.623V2633.223z
		 M79.668,2738.62c21.566,0,36.697-12.869,36.697-39.219s-15.131-39.133-36.697-39.133H65.667v78.266L79.668,2738.62z"/>
	<path d="M168.455,2710.444v-77.221h30.958v73.916c0,22.002,8.696,33.568,26.088,33.568s25.566-11.566,25.566-33.568v-73.916h31.219
		v77.221c0,34.785-21.392,57.482-56.785,57.482S168.455,2745.577,168.455,2710.444z"/>
	<path fill="#FF003E" d="M1789.787,1948.766l26.088-10.609c2.625,10.826,12.172,18.557,23.307,18.871
		c9.391,0,16.088-5.131,16.088-13.045c0-6.434-3.826-11.564-14.957-17.391c-2.697-1.305-16.262-8.176-18.609-9.48
		c-14.176-6.348-23.182-20.559-22.871-36.088c0-20.262,16.088-34.783,40.523-34.783c16.473-1.564,31.906,8.248,37.48,23.826
		l-24.785,12.697c-1.59-5.623-6.521-9.652-12.348-10.088c-5.479,0-9.652,3.043-9.652,7.912c0,4.871,2.436,8.176,9.826,12.088
		c1.479,0.783,17.393,9.131,18.957,10.088c18.523,9.826,27.219,21.914,27.219,40.871c0,21.219-18,39.916-46.523,39.916
		C1816.734,1985.452,1795.824,1970.829,1789.787,1948.766z"/>
	<path fill="#FF003E" d="M1903.531,1924.766v-77.221h30.959v73.916c0,22.002,8.695,33.568,26.088,33.568
		s25.566-11.566,25.566-33.568v-73.916h31.219v77.221c0,34.785-21.393,57.482-56.785,57.482S1903.531,1959.899,1903.531,1924.766z"
		/>
	<path fill="#FF003E" d="M2043.539,1848.676h44.262c44.09,0,68.699,28.176,68.699,66.178s-26.088,66.264-68.699,66.264h-44.262
		V1848.676z M2088.584,1954.073c21.566,0,36.697-12.869,36.697-39.219s-15.131-39.133-36.697-39.133h-14.088v78.266
		L2088.584,1954.073z"/>
	<path fill="#FF003E" d="M2177.545,1919.749h60.176v26.088h-60.176V1919.749z"/>
	<path fill="#FF003E" d="M2258.678,1914.897c-1.344-37.678,28.109-69.311,65.785-70.656c37.678-1.346,69.312,28.107,70.656,65.785
		c0.059,1.623,0.059,3.248,0,4.871c1.346,37.678-28.107,69.311-65.785,70.656c-37.676,1.346-69.311-28.107-70.656-65.785
		C2258.621,1918.145,2258.621,1916.52,2258.678,1914.897z M2363.9,1914.897c0-26.088-18-41.393-36.871-41.393
		c-18.869,0-37.307,15.131-37.307,41.393s18.002,41.48,37.307,41.48S2363.9,1941.247,2363.9,1914.897z"/>
	<path fill="#FF003E" d="M2415.99,1924.766v-77.221h31.045v73.916c0,22.002,8.695,33.568,26.088,33.568s25.479-11.566,25.479-33.568
		v-73.916h31.219v77.221c0,34.785-21.391,57.482-56.697,57.482S2415.99,1959.899,2415.99,1924.766z"/>
	<path fill="#FF003E" d="M2555.996,1848.676h88.961v27.045h-57.916v23.045h54.09v27.305h-54.09v28.002h57.916v27.045h-88.961
		V1848.676z"/>
	<path fill="#FF003E" d="M2660.088,1948.799l26.088-10.609c2.607,10.766,12.062,18.48,23.133,18.871
		c9.479,0,16.086-5.131,16.086-13.045c0-6.434-3.826-11.564-14.957-17.391c-2.695-1.305-16.262-8.176-18.521-9.48
		c-14.225-6.305-23.275-20.531-22.957-36.088c0-20.262,16.086-34.782,40.523-34.782c16.355-1.623,31.752,7.983,37.479,23.392
		l-24.783,12.695c-1.762-5.654-6.947-9.545-12.869-9.652c-5.479,0-9.654,3.043-9.654,7.912c0,4.871,2.436,8.176,9.828,12.088
		c1.564,0.783,17.391,9.131,18.957,10.088c18.521,9.826,27.219,21.914,27.219,40.871c0,21.219-18.002,39.916-46.525,39.916
		C2686.592,1985.137,2666.076,1970.588,2660.088,1948.799z"/>
	<path fill="#FF003E" d="M2797.051,1875.721h-33.48v-27.045h98.961v27.045h-34.783v105.396h-30.871L2797.051,1875.721z"/>
	<rect x="-1875.992" y="674.853" width="1735.992" height="1082.396"/>
	<path d="M771.774,1018.09h123.223v78.264H684.466V757.208h86.961L771.774,1018.09z"/>
	<path d="M514.524,858.346h124.287v181.424H483.072l-36.779,212.374H260.875l35.512-212.374H91.185l-36.778,212.374h-186.94
		l36.779-212.374h-107.546V858.346h138.746l35.257-209.585h-124.541V467.593H1.901l35.51-206.539h186.684L188.84,467.593h205.2
		l35.258-206.539h186.685l-35.511,206.539h107.546v181.168H549.526L514.524,858.346z M122.382,858.346h205.203l34.749-209.585
		H157.641L122.382,858.346z"/>
	<path d="M1781.82,941.951c-16.342-2.084-31.277,9.475-33.359,25.816c-0.012,0.09-0.023,0.182-0.033,0.271
		c-0.305,2.426-0.305,4.879,0,7.305h-73.83c-0.957-73.656,48.523-109.309,108.701-110.961c97.221-2.436,140.18,94.09,89.742,172.182
		l-68.438,95.135h100.961v77.568h-238.707v-12.783l127.572-187.053C1811.82,986.562,1824.518,941.951,1781.82,941.951"/>
	<path d="M2212.188,980.3v118.875c0,74.264-57.307,116.875-127.658,116.875c-68.873,0-126.615-42.611-126.615-116.875V980.3
		c0-74.264,57.742-116.875,126.615-116.875C2154.881,863.425,2212.188,906.037,2212.188,980.3 M2130.184,1097.261V981.779
		c0-26.697-19.914-40.785-45.654-40.785c-21.748-2.129-41.15,13.664-43.48,35.393c0,1.74,0,3.566,0,5.393v115.482
		c-0.982,22.115,16.146,40.842,38.264,41.828c1.967,0.176,3.945,0.176,5.912,0c22.361,2.705,42.682-13.23,45.387-35.592
		c0.002-0.021,0.004-0.041,0.008-0.062c0-1.971,0-3.971,0-6"/>
	<path d="M2346.541,1105.437c0,22.348,15.045,33.479,38.35,33.479c20.604,0.096,37.383-16.527,37.48-37.131c0-0.029,0-0.059,0-0.088
		c0-1.131,0-2.348,0-3.479c-0.436-49.045-48.959-47.045-85.83-45.654v-11.652l45.133-94.092h-98.18v-77.133h215.836v12.609
		l-62.264,114.178c53.83,13.566,69.568,57.221,69.568,100.875c1.803,63.609-48.305,116.637-111.914,118.438
		c-0.031,0-0.061,0.002-0.09,0.002h-7.393c-21.236,0.699-42.266-4.348-60.871-14.609c-34.664-19.316-56.059-55.975-55.83-95.656
		L2346.541,1105.437z"/>
	<path d="M2818.562,980.3v118.875c0,74.264-57.221,116.875-127.57,116.875c-68.873,0-126.615-42.611-126.615-116.875V980.3
		c0-74.264,57.742-116.875,126.615-116.875C2761.342,863.425,2818.562,906.037,2818.562,980.3 M2736.559,1097.261V981.779
		c0-26.697-19.914-40.785-45.566-40.785c-21.916-2.385-41.615,13.447-44,35.363c0,0.01-0.002,0.02-0.002,0.029
		c-0.133,1.795-0.133,3.598,0,5.393v115.482c-1.031,22.068,16.023,40.795,38.092,41.824c0.027,0.002,0.055,0.004,0.084,0.004
		c1.996,0.174,4.004,0.174,6,0c22.354,2.656,42.631-13.303,45.307-35.654c0.172-1.996,0.172-4.004,0-6"/>
	<path d="M1107.964,752.164c68.438,0.522,139.745,35.915,156.528,120.354h-85.396c-14.088-29.132-36.436-40.697-70.873-40.697
		c-54.785,0-84.352,42.61-84.352,94.612c0,56.264,32.959,93.135,84.352,93.135c34.785,0,57.308-9.218,72.787-41.74h-72.265v-75.222
		h160.616c3.568,33.479,0.254,67.333-9.74,99.483c-24.262,70.785-88.786,98.004-151.398,98.004
		c-86.352,0-173.92-57.741-173.92-173.921c0-116.179,87.83-173.921,173.92-173.921"/>
	<path d="M1464.588,948.695h2.435l77.569-192.096h83.481v13.044l-144.093,330.449h-36.872l-145.571-330.449V756.6h83.482
		L1464.588,948.695z"/>
	<path fill="#FF003E" d="M1959.437,2075.556h88.961v27.043h-57.916v23.045h54.177v27.307h-54.177v28h57.916v27.393h-88.961V2075.556
		z"/>
	<path fill="#FF003E" d="M1761.695,2102.599h-33.48v-27.043h98.961v27.043h-34.783v105.744h-30.871L1761.695,2102.599z"/>
	<path d="M2226.581,2936.916c-1.344-37.678,28.109-69.311,65.785-70.656c37.678-1.346,69.312,28.107,70.656,65.785
		c0.059,1.623,0.059,3.248,0,4.871c1.346,37.678-28.107,69.311-65.785,70.656c-37.676,1.346-69.311-28.107-70.656-65.785
		C2226.524,2940.164,2226.524,2938.539,2226.581,2936.916z M2331.804,2936.916c0-26.088-18-41.393-36.871-41.393
		c-18.869,0-37.307,15.131-37.307,41.393s18.002,41.48,37.307,41.48S2331.804,2963.265,2331.804,2936.916z"/>
	<path d="M2383.894,2947.958v-77.221h31.045v73.916c0,22.002,8.695,33.568,26.088,33.568s25.479-11.566,25.479-33.568v-73.916
		h31.219v77.221c0,34.785-21.391,57.482-56.697,57.482S2383.894,2983.091,2383.894,2947.958z"/>
	<path fill="#FF003E" d="M3092.768,1848.503h29.566l48.785,132.787h-31.045l-9.219-26.088h-47.307l-9.479,26.088h-30.697
		L3092.768,1848.503z M3121.725,1927.724l-14.521-42.699l-14.609,42.699H3121.725z"/>
	<path fill="#FF003E" d="M2531.558,2075.556h31.045v105.395h54.698v27.393h-85.743V2075.556z"/>
	<path fill="#FF003E" d="M2634.519,2075.556h31.045v132.787h-31.045V2075.556z"/>
	<path fill="#FF003E" d="M2688.087,2141.613c0-39.74,26.088-68.264,67.395-68.264c22.633-1.395,44.099,10.164,55.394,29.828
		l-26.088,15.217c-6.238-10.805-17.786-17.441-30.263-17.393c-19.305,0-35.393,15.914-35.393,40.873
		c0,26.869,17.392,41.219,35.393,41.219c14.771,1.412,28.064-8.979,30.263-23.654h-29.132v-26.088h60.002v75.047h-21.565
		l-4.957-13.043c-9.924,9.938-23.436,15.455-37.479,15.305C2714.175,2210.312,2688.087,2181.005,2688.087,2141.613z"/>
	<path fill="#FF003E" d="M2840.964,2075.556h33.914l46.176,82.438v-82.438h30.437v132.787h-33.653l-46.351-80.09v80.09h-30.522
		V2075.556z"/>
	<path fill="#FF003E" d="M2979.926,2075.556h88.874v27.043h-57.829v23.045h54.09v27.307h-54.09v28h57.829v27.393h-88.874V2075.556z"
		/>
	<path fill="#FF003E" d="M3084.018,2176.164l26.089-10.609c2.724,10.881,12.438,18.559,23.652,18.697
		c9.393,0,16.001-5.131,16.001-13.045c0-6.434-3.739-11.564-14.87-17.391c-2.695-1.305-16.349-8.176-18.609-9.479
		c-14.176-6.35-23.181-20.561-22.871-36.09c0-20.262,16.088-34.783,40.523-34.783c16.35-1.592,31.728,8.006,37.48,23.393
		l-24.871,12.695c-1.606-5.703-6.689-9.734-12.609-10c-5.479,0-9.652,3.043-9.652,7.914c0,4.869,2.436,8.174,9.826,12.086
		c1.479,0.783,17.393,8.697,18.958,10.088c18.522,9.826,27.219,21.914,27.219,40.871c0,21.219-18.001,39.916-46.524,39.916
		C3111.115,2212.384,3090.261,2198.019,3084.018,2176.164z"/>
	<path fill="#FF003E" d="M1495.629,2075.556h88.961v27.043h-58.177v23.045h54.09v27.307h-54.09v28h57.916v27.393h-88.7V2075.556z"/>
	<path fill="#FF003E" d="M1604.607,2075.556h33.827l46.176,82.438v-82.438h30.437v132.787h-33.654l-46.61-80.438v80.438h-30.437
		L1604.607,2075.556z"/>
	<path fill="#FF003E" d="M1842.789,2075.512h47.133c29.306,0,45.22,14.521,45.22,37.219c0.515,16.27-10.324,30.723-26.089,34.783
		l35.828,60.873h-34.784l-31.74-56.002h-4.175v55.914h-31.045L1842.789,2075.512z M1889.748,2125.6
		c8.696,0,14.349-4.521,14.349-11.74c0-7.217-5.479-11.652-14.349-11.652h-15.914v23.393H1889.748z"/>
	<path fill="#FF003E" d="M2344.389,2175.923l26.089-10.609c2.715,10.85,12.383,18.52,23.565,18.697
		c9.392,0,16.088-5.131,16.088-13.045c0-6.434-3.827-11.564-14.958-17.391c-2.695-1.305-16.262-8.176-18.521-9.479
		c-14.226-6.305-23.276-20.533-22.958-36.09c0-20.262,16.087-34.783,40.523-34.783c16.356-1.623,31.752,7.984,37.479,23.393
		l-24.783,12.695c-1.865-5.555-7.012-9.344-12.87-9.479c-5.479,0-9.653,3.043-9.653,7.914c0,4.869,2.436,8.174,9.828,12.088
		c1.478,0.781,17.391,8.695,18.957,10.086c18.521,9.828,27.219,21.914,27.219,40.871c0,21.219-18.002,39.916-46.524,39.916
		C2371.169,2212.478,2350.408,2197.882,2344.389,2175.923z"/>
	<path fill="#FF003E" d="M2132.835,2075.556h31.045v105.395h54.698v27.393h-85.743V2075.556z"/>
	<path fill="#FF003E" d="M2237.188,2075.556h88.874v27.043h-57.829v23.045h54.09v27.307h-54.09v28h57.829v27.393h-88.874V2075.556z"
		/>
	<path fill="#FF003E" d="M3411.771,1848.503h31.045v105.395h54.698v27.393h-85.743V1848.503z"/>
	<path fill="#FF003E" d="M3578.048,1848.459h47.133c29.306,0,45.22,14.521,45.22,37.219c0.515,16.27-10.324,30.723-26.089,34.783
		l35.828,60.873h-34.784l-31.74-56.002h-4.175v55.914h-31.045L3578.048,1848.459z M3625.007,1898.547
		c8.696,0,14.349-4.521,14.349-11.74c0-7.217-5.479-11.652-14.349-11.652h-15.914v23.393H3625.007z"/>
</g>
<g id="Layer_2">
	<rect x="1679.133" y="486.561" width="841.856" height="72"/>
	<polygon points="2057.439,-170.681 1861.445,820.409 1788.906,820.409 1985.073,-170.681 	"/>
	<rect x="1728.594" y="90.561" width="841.857" height="72"/>
	<polygon points="2452.066,-170.939 2258.355,820.409 2185.123,819.527 2382.566,-170.681 	"/>
	<path fill="#FF003E" d="M262.48,2149.502h159.422v101.256h-272.38v-438.779H262.03L262.48,2149.502z"/>
	<path fill="#FF003E" d="M697.434,1805.454c88.543,0.676,180.799,46.467,202.513,155.711H789.464
		c-18.227-37.69-47.14-52.654-91.693-52.654c-70.88,0-109.133,55.129-109.133,122.408c0,72.793,42.642,120.495,109.133,120.495
		c45.004,0,74.143-11.925,94.17-54.003h-93.494v-97.319h207.801c4.617,43.313,0.329,87.114-12.602,128.71
		c-31.389,91.58-114.869,126.795-195.875,126.795c-111.72,0-225.014-74.705-225.014-225.016
		c0-150.309,113.632-225.015,225.014-225.015"/>
	<path fill="#FF003E" d="M1158.826,2059.721h3.148l100.357-248.529h108.008v16.876l-186.426,427.528h-47.703l-188.337-427.528
		v-16.876h108.009L1158.826,2059.721z"/>
	
		<rect x="318.354" y="2196.731" transform="matrix(0.9901 -0.1407 0.1407 0.9901 -306.7615 126.2131)" fill="#24346B" width="841.856" height="71.999"/>
	<polygon fill="#24346B" points="599.557,1552.379 544.944,2561.187 473.125,2571.392 527.909,1562.561 	"/>
	
		<rect x="311.612" y="1797.711" transform="matrix(0.9901 -0.1407 0.1407 0.9901 -250.6918 121.2959)" fill="#24346B" width="841.857" height="72"/>
	<polygon fill="#24346B" points="990.222,1496.606 937.906,2505.347 865.278,2514.777 921.449,1506.639 	"/>
</g>
</svg>
